<?xml version="1.0" encoding="UTF-8"?>
<svg width="64px" height="64px" viewBox="0 0 64 64" version="1.1" xmlns="http://www.w3.org/2000/svg" xmlns:xlink="http://www.w3.org/1999/xlink">
    <title>icon</title>
    <defs>
        <linearGradient x1="99.5405212%" y1="51.114298%" x2="63.538607%" y2="51.114298%" id="linearGradient-1">
            <stop stop-color="#71C837" offset="0%"></stop>
            <stop stop-color="#D4FF2A" offset="100%"></stop>
        </linearGradient>
    </defs>
    <g id="icon" stroke="none" stroke-width="1" fill="none" fill-rule="evenodd">
        <path d="M30.6692942,55.637275 C33.6783754,53.4889675 35.7719484,51.2277692 43.3259225,51.2277692 C54.0649099,51.2277692 59,49.5044475 59,45.5 C59,43.1656141 52.1650245,44.944083 49.2212083,40.8925574 C46.8256439,37.9783105 51.6559737,35.6748015 49.7683947,35.1244407 C47.2591436,34.3928191 37.9612853,36 33.5,36 C19.4167389,36 2.30463585,38.3131763 4.51886341,43.4833532 C5.35615903,45.4384217 7.86852493,47.438414 9.83975744,47.8501445 C13.3688972,48.5872744 16.946716,46.8517719 18.7529604,49.2718782 C20.3873926,54.4883943 26.6677548,58.4941395 30.6692942,55.637275 Z" id="Oval" fill="#000000"></path>
        <g id="g1335" transform="translate(27.000006, 28.999997) rotate(59.999999) translate(-27.000006, -28.999997) translate(10.000006, 19.000003)" fill-rule="nonzero">
            <path d="M2.39835428,17.1428536 C1.61981226,17.1428536 0.993035996,17.7799775 0.993035996,18.5713977 C0.993035996,19.3628068 1.61981226,19.9999307 2.39835428,19.9999307 L3.85971016,19.9999307 C4.63826318,19.9999307 5.26502844,19.3628068 5.26502844,18.5713866 C5.26502844,17.7799775 4.63826318,17.1428536 3.85971016,17.1428536 L2.39835428,17.1428536 Z M2.39835428,2.66453526e-15 C1.61981226,2.66453526e-15 0.993035996,0.637135057 0.993035996,1.42854411 C0.993035996,2.21995317 1.61981226,2.85708822 2.39835428,2.85708822 L3.85972116,2.85708822 C4.63826318,2.85708822 5.26502844,2.21995317 5.26502844,1.42854411 C5.26502844,0.637135057 4.63826318,2.66453526e-15 3.85972116,2.66453526e-15 L2.39835428,2.66453526e-15 Z M9.47736846,1.34190198e-05 L8.50288626,0.000348894513 C7.54271047,0.000348894513 6.76971171,0.637436985 6.76971171,1.42884604 C6.76971171,2.22025509 7.54271047,2.85741252 8.50288626,2.85741252 L9.47736846,2.85741252 L11.1237364,2.85741252 C12.0839133,2.85741252 12.8569099,3.49454757 12.8569099,4.28596781 C12.8569077,5.07737686 12.08391,5.71446719 11.1237364,5.71446719 L2.53864959,5.71446719 L1.73317455,5.71446719 C0.77299876,5.71446719 7.10542736e-15,6.35161343 7.10542736e-15,7.14302248 C7.10542736e-15,7.93443154 0.77299876,8.57157778 1.73317455,8.57157778 L2.53864959,8.57157778 L3.29699871,8.57157778 C4.2571712,8.57157778 5.03017216,9.2087352 5.03017216,10.0001443 C5.03017216,10.7915533 4.2571712,11.4286548 3.29699871,11.4286436 L2.55149622,11.4286436 L1.74602227,11.4286436 C0.785846486,11.4286436 0.0128477254,12.0657899 0.0128477254,12.8571989 C0.0128477254,13.6486192 0.785846486,14.2857654 1.74602227,14.2857654 L2.55149622,14.2857654 L12.7820006,14.2857654 C13.7421763,14.2857654 14.515174,14.9228557 14.5151751,15.7142648 C14.5151751,16.5056738 13.7421763,17.1428201 12.7820006,17.1428201 L11.8005252,17.1428201 L10.6103609,17.1428201 C9.65019726,17.1428201 8.8771875,17.7799551 8.8771875,18.5713754 C8.8771875,19.3627844 9.65019726,19.9999866 10.6103609,19.9999866 L11.8005252,19.9999866 L16.2377747,19.9999866 L23.7367683,19.9999866 C23.8054611,19.9999866 23.8739482,19.9987565 23.9423297,19.9980856 C23.9550246,19.9992038 23.9677205,19.9994275 23.9804175,19.9999866 C29.5140846,19.9999866 34,15.5228425 34,10.0000134 C34,4.47720002 29.5140846,1.34190198e-05 23.9804175,1.34190198e-05 C23.9554393,0.000837570482 23.9304644,0.00174335431 23.9054928,0.00271623325 C23.9054048,0.00271623325 23.9052728,0.002719588 23.9051628,0.00271623325 C23.8491879,0.00193345709 23.7931316,0.00149733895 23.7369498,0.00149733895 L14.579527,0.00149733895 L9.47736846,1.34190198e-05 Z M13.973116,9.9999877 C13.973541,10.2277979 13.9839252,10.4555299 14.0043748,10.6827922 C13.9839224,10.4555299 13.9734971,10.2277979 13.973116,9.9999877 Z M14.0580478,11.2340902 C14.0769248,11.3821691 14.1000633,11.5299125 14.1274488,11.6771974 C14.1000633,11.5299125 14.0769248,11.3821691 14.0580478,11.2340902 Z M14.237961,12.2684171 C14.2716323,12.3964122 14.3085379,12.5238705 14.3486522,12.6507473 C14.3085379,12.5238705 14.2716323,12.3964122 14.237961,12.2684171 Z M14.5224906,13.265372 C14.5575564,13.3772083 16.2528544,13.4884296 16.2918365,13.5989688 C16.2528544,13.4884296 14.5575564,13.3772083 14.5224906,13.265372 Z M16.5730619,14.2324919 C16.6186754,14.3257764 16.6659022,14.4184348 16.7147286,14.5104445 C16.6659022,14.4184348 16.6186754,14.3257764 16.5730619,14.2324919 Z M17.0684908,15.1612446 C17.114687,15.233685 17.1619134,15.3056221 17.2101575,15.3770336 C17.1619134,15.3056221 17.114687,15.233685 17.0684908,15.1612446 Z M15.9878551,16.015231 C16.0343627,16.0742635 16.0815878,16.1328376 16.1295218,16.1909643 C16.0815878,16.1328376 16.0343627,16.0742635 15.9878551,16.015231 Z M16.6572371,16.8129806 C16.7039947,16.8609695 16.7512196,16.9085885 16.7989038,16.9558376 C16.7512196,16.9085885 16.7039947,16.8609695 16.6572371,16.8129806 Z M17.3938651,17.5271855 C17.4397665,17.5701569 17.4859867,17.6127997 17.5325214,17.655114 C17.4859867,17.6127997 17.4397665,17.5701569 17.3938651,17.5271855 Z M18.2040573,18.167037 C18.244166,18.1975656 18.2844546,18.2278513 18.3249231,18.2579084 C18.2844546,18.2278513 18.244166,18.1975656 18.2040573,18.167037 Z M19.089533,18.7284278 C19.1166551,18.7450421 19.1438395,18.7615421 19.1710863,18.7779564 C19.1438395,18.7615421 19.1166551,18.7450421 19.089533,18.7284278 Z M19.9993813,19.180371 C20.0227974,19.1916567 20.0462489,19.2028852 20.0697344,19.2140281 C20.0462489,19.2028852 20.0227974,19.1916567 19.9993813,19.180371 Z M20.9693708,19.544874 C20.9809591,19.5491597 20.9925475,19.5533026 21.0041443,19.5574454 C20.9925418,19.5533026 20.9809549,19.5490169 20.9693708,19.544874 Z M21.9370231,19.7986826 C21.9493198,19.8018255 21.9616151,19.8048255 21.9739188,19.8079683 C21.9616221,19.8048255 21.949317,19.8018255 21.9370231,19.7986826 Z M22.939625,19.9569742 L22.9614416,19.9602599 L22.939625,19.9569742 Z" id="path1276" fill="#1B2F0D"></path>
            <path d="M25.0584407,3.63397464 C24.8719037,3.63489933 24.6854771,3.64317238 24.4996018,3.65880823 C24.4858796,3.65840368 24.4722162,3.65779686 24.4583955,3.65779686 L18.506376,3.65779686 C17.729052,3.65779686 17.1032615,4.28007283 17.1032615,5.05300901 C17.1032615,5.8259423 17.729052,6.44822116 18.506376,6.44822116 L18.9493151,6.44822116 L18.2950345,6.44822116 L19.2717827,6.44822116 C20.0491068,6.44822116 20.6748969,7.07043934 20.6748969,7.84337552 C20.6748969,8.61632326 20.0491068,9.23858767 19.2717827,9.23858767 L19.110451,9.23858767 L19.1103929,9.23893442 L15.131467,9.23893442 C14.354143,9.23893442 13.7283528,9.86121328 13.7283528,10.6341466 C13.7283528,11.4070828 14.354143,12.0293587 15.131467,12.0293587 L19.4102189,12.0293587 L19.7625158,12.0293587 L19.8584926,12.0293587 C20.6358166,12.0293587 21.2616071,12.6515798 21.2616071,13.424516 C21.2616071,14.1974608 20.6358166,14.8197281 19.8584926,14.8197281 L19.4102189,14.8197281 L19.1511189,14.8197281 C18.3737949,14.8197281 17.7480044,15.4420041 17.7480044,16.2149403 C17.7480044,16.9878765 18.3737949,17.6100946 19.1511189,17.6100946 L24.458394,17.6100946 C24.4841721,17.6100946 24.50976,17.6093144 24.5351876,17.6079563 C24.7092198,17.6230807 24.8837579,17.6317612 25.0584393,17.6339746 C28.946319,17.6339746 32.0980762,14.4999689 32.0980762,10.6339848 C32.0980762,6.76800062 28.9463202,3.63397464 25.0584393,3.63397464 L25.0584407,3.63397464 Z M9.50119037,9.23892287 C8.72386491,9.23892287 8.0980762,9.86120173 8.0980762,10.634135 C8.0980762,11.4070712 8.72386491,12.0293472 9.50119037,12.0293472 L10.8141165,12.0293472 C11.5914275,12.0293472 12.2172295,11.4070712 12.2172295,10.634135 C12.2172295,9.86120173 11.5914275,9.23892287 10.8141165,9.23892287 L9.50119037,9.23892287 Z" id="path1278" fill="url(#linearGradient-1)"></path>
        </g>
        <ellipse id="Oval" fill="#000000" cx="45" cy="55.5" rx="7" ry="1.5"></ellipse>
        <ellipse id="Oval-Copy" fill="#000000" transform="translate(13.102520, 52.600196) rotate(13.000000) translate(-13.102520, -52.600196) " cx="13.1025197" cy="52.6001958" rx="3" ry="1.5"></ellipse>
        <ellipse id="Oval-Copy-2" fill="#000000" transform="translate(54.102520, 39.600196) rotate(13.000000) translate(-54.102520, -39.600196) " cx="54.1025197" cy="39.6001958" rx="3" ry="1.5"></ellipse>
        <ellipse id="Oval" fill="#FFFFFF" cx="55" cy="39.5" rx="1" ry="1"></ellipse>
        <ellipse id="Oval-Copy-3" fill="#FFFFFF" cx="56" cy="46.5" rx="1" ry="1"></ellipse>
        <ellipse id="Oval-Copy-5" fill="#FFFFFF" transform="translate(14.500000, 52.500000) rotate(17.000000) translate(-14.500000, -52.500000) " cx="14.5" cy="52.5" rx="1.5" ry="1"></ellipse>
        <ellipse id="Oval-Copy-6" fill="#FFFFFF" transform="translate(48.500000, 55.500000) rotate(2.000000) translate(-48.500000, -55.500000) " cx="48.5" cy="55.5" rx="1.5" ry="1"></ellipse>
    </g>
</svg>